<?xml version="1.0" encoding="UTF-8" standalone="no"?>
<!-- Created with Inkscape (http://www.inkscape.org/) -->

<svg
   xmlns:dc="http://purl.org/dc/elements/1.1/"
   xmlns:cc="http://creativecommons.org/ns#"
   xmlns:rdf="http://www.w3.org/1999/02/22-rdf-syntax-ns#"
   xmlns:svg="http://www.w3.org/2000/svg"
   xmlns="http://www.w3.org/2000/svg"
   xmlns:sodipodi="http://sodipodi.sourceforge.net/DTD/sodipodi-0.dtd"
   xmlns:inkscape="http://www.inkscape.org/namespaces/inkscape"
   width="16px"
   height="16px"
   id="svg3005"
   version="1.1"
   inkscape:version="0.48.4 r9939"
   sodipodi:docname="hideabox.svg">
  <defs
     id="defs3007" />
  <sodipodi:namedview
     id="base"
     pagecolor="#ffffff"
     bordercolor="#666666"
     borderopacity="1.0"
     inkscape:pageopacity="0.0"
     inkscape:pageshadow="2"
     inkscape:zoom="14.75"
     inkscape:cx="16.508475"
     inkscape:cy="-3.6945365"
     inkscape:current-layer="layer2"
     showgrid="true"
     inkscape:grid-bbox="true"
     inkscape:document-units="px"
     inkscape:window-width="1466"
     inkscape:window-height="886"
     inkscape:window-x="356"
     inkscape:window-y="93"
     inkscape:window-maximized="0" />
  <metadata
     id="metadata3010">
    <rdf:RDF>
      <cc:Work
         rdf:about="">
        <dc:format>image/svg+xml</dc:format>
        <dc:type
           rdf:resource="http://purl.org/dc/dcmitype/StillImage" />
        <dc:title />
      </cc:Work>
    </rdf:RDF>
  </metadata>
  <g
     inkscape:groupmode="layer"
     id="layer2"
     inkscape:label="hideabox"
     style="display:inline;opacity:1">
    <g
       style="display:inline"
       id="g3799">
      <path
         style="fill:#ffffff"
         d="m 8,16 -8,0 0,-8 0,-8 8,0 8,0 0,8 0,8 -8,0 z"
         id="path3803"
         inkscape:connector-curvature="0" />
      <path
         style="fill:#999999;fill-opacity:1"
         d="m 3.6,13.6 -1.2,0 0,-4.8 0,-4.8 0.4,0 0.4,0 0,-0.4 0,-0.4 0.4,0 0.4,0 0,-0.4 0,-0.4 0.8,0 0.8,0 0,-0.4 0,-0.4 2,0 2,0 0,0.4 0,0.4 0.8,0 0.8,0 0,0.4 0,0.4 0.4,0 0.4,0 0,0.4 0,0.4 0.4,0 0.4,0 0,4.8 0,4.8 -1.2,0 -1.2,0 0,-1.6 0,-1.6 -0.8,0 -0.8,0 0,1.6 0,1.6 -1.2,0 -1.2,0 0,-1.6 0,-1.6 -0.8,0 -0.8,0 0,1.6 0,1.6 -1.2,0 z m 2.8,-6.4 0.8,0 0,-1.2 0,-1.2 -0.8,0 -0.8,0 0,1.2 0,1.2 0.8,0 z m 2.4,0 0.8,0 0,-1.2 0,-1.2 -0.8,0 -0.8,0 0,1.2 0,1.2 0.8,0 z"
         id="path3801"
         inkscape:connector-curvature="0" />
    </g>
  </g>
</svg>
